<svg width="443" height="20" viewBox="0 0 443 118" fill="none" xmlns="http://www.w3.org/2000/svg">
<path d="M0.03125 118V8.90909H76.7358V32.7727H29.6477V51.5227H72.0483V75.3864H29.6477V118H0.03125ZM88.055 118V36.1818H117.458V118H88.055ZM102.757 27.6591C98.7795 27.6591 95.3704 26.3452 92.5295 23.7173C89.6886 21.0895 88.2681 17.929 88.2681 14.2358C88.2681 10.5426 89.6886 7.3821 92.5295 4.75426C95.3704 2.12642 98.7795 0.8125 102.757 0.8125C106.77 0.8125 110.179 2.12642 112.984 4.75426C115.825 7.3821 117.245 10.5426 117.245 14.2358C117.245 17.929 115.825 21.0895 112.984 23.7173C110.179 26.3452 106.77 27.6591 102.757 27.6591ZM132.014 118V8.90909H161.63V94.1364H205.735V118H132.014ZM217.707 118V8.90909H247.324V94.1364H291.429V118H217.707ZM303.827 118V36.1818H333.23V118H303.827ZM318.528 27.6591C314.551 27.6591 311.142 26.3452 308.301 23.7173C305.46 21.0895 304.04 17.929 304.04 14.2358C304.04 10.5426 305.46 7.3821 308.301 4.75426C311.142 2.12642 314.551 0.8125 318.528 0.8125C322.541 0.8125 325.95 2.12642 328.756 4.75426C331.596 7.3821 333.017 10.5426 333.017 14.2358C333.017 17.929 331.596 21.0895 328.756 23.7173C325.95 26.3452 322.541 27.6591 318.528 27.6591ZM442.174 8.90909V118H417.458L378.041 60.6847H377.402V118H347.785V8.90909H372.927L411.706 66.0114H412.558V8.90909H442.174Z" fill="#FF71A4"/>
</svg>
